<svg width="76" height="76" viewBox="0 0 76 76" fill="none" xmlns="http://www.w3.org/2000/svg">
<path d="M59.4912 51.7488C59.5175 53.0394 58.1375 53.9753 56.9623 53.4754C56.3822 53.26 56.0527 52.7414 55.7416 52.2251C55.461 51.718 54.8576 50.9913 54.2369 51.2093C54.2054 51.2203 54.1757 51.2359 54.1464 51.253C51.3706 52.864 38.9304 60.1321 36.2219 61.7153C35.1538 62.3442 36.6811 63.8372 36.7374 64.707C36.9347 65.7833 36.0578 66.87 34.9678 66.8642C33.8437 66.9217 32.8984 65.8259 33.1043 64.707C33.2151 64.0354 33.6754 63.467 33.8952 62.8305C33.9545 62.6924 33.9925 62.517 33.9936 62.3495C33.9955 62.1152 33.873 61.8979 33.6742 61.7777C30.7054 59.9792 18.6188 52.9416 15.8828 51.3736C15.7502 51.2975 15.595 51.2671 15.4455 51.2975C14.7628 51.4372 14.25 52.4557 13.7732 52.9374C13.7646 52.9461 13.7563 52.9549 13.7484 52.9644C13.1041 53.7193 11.8751 53.8296 11.1331 53.1615C10.1472 52.3366 10.3494 50.6097 11.5219 50.0694C12.3508 49.6391 13.3269 50.1078 14.1835 49.8221C14.1857 49.8213 14.1884 49.8202 14.1906 49.8194C14.4378 49.7251 14.599 49.4819 14.6039 49.2145C14.6693 45.6551 14.6107 31.2424 14.6257 28.2207C14.6257 28.1906 14.6246 28.1606 14.6201 28.1305C14.501 27.3448 13.461 27.4677 12.8264 27.4038C12.8114 27.4023 12.7964 27.4015 12.7813 27.4011C11.0782 27.3707 10.2442 25.2811 11.54 24.1047C12.2358 23.4781 13.3945 23.5116 14.0501 24.1877C14.507 24.6583 14.8049 25.369 15.1859 25.8207C15.2246 25.8732 15.2712 25.9234 15.323 25.969C15.5289 26.1501 15.8257 26.1791 16.0647 26.0459C18.8168 24.5153 31.0435 17.2973 33.6025 15.8283C34.7011 15.2066 33.1689 13.7083 33.1058 12.8359C33.0303 12.374 33.1302 11.8847 33.3861 11.4943C34.378 9.99562 36.7453 10.6763 36.7607 12.5045C36.7607 12.517 36.7615 12.53 36.7626 12.5425C36.834 13.3864 35.7422 14.5008 35.8571 15.3051C35.8849 15.4984 36.0044 15.6651 36.1705 15.7644C39.1961 17.5708 50.9637 24.4643 54.0419 26.1985C54.1595 26.2647 54.294 26.2943 54.4274 26.2791C55.4929 26.1585 55.8273 24.6047 56.6107 24.0225C57.4571 23.3567 58.827 23.631 59.3274 24.6001C59.8395 25.4965 59.4717 26.7578 58.5347 27.1911C57.7051 27.5834 56.6971 27.2775 55.8498 27.6386C55.4831 27.7885 55.18 28.0594 55.2141 28.4448C55.2333 31.4551 55.1758 45.8811 55.2333 48.9694C55.2371 49.1661 55.3242 49.3545 55.4783 49.4743C55.4963 49.4884 55.5158 49.5025 55.5361 49.5166C55.5542 49.5287 55.5729 49.5405 55.5917 49.5512C56.3503 49.9689 57.3095 49.7308 58.1496 49.9495C58.9296 50.155 59.5018 50.9224 59.4909 51.7393V51.7488H59.4912Z" fill="#EDEDED"/>
<path d="M70.5192 38.3752V38.3659C70.512 35.3649 67.4997 33.1756 64.6647 34.0588C64.1708 34.2024 63.5926 34.4668 63.1813 34.6584C62.9107 34.7805 62.655 34.8722 62.4227 34.8771C62.148 34.885 61.9332 34.8795 61.5787 34.8809C60.0609 34.8781 58.0639 34.8788 55.9138 34.8798C55.0293 34.8802 54.2566 34.281 54.0301 33.4212C53.2203 30.3486 51.6835 27.5733 49.616 25.2926C49.0016 24.6148 48.9479 23.5949 49.4769 22.8483C49.5485 22.7473 49.617 22.6515 49.6821 22.5618C49.7953 22.4051 49.9309 22.2664 50.0851 22.1501C50.4152 21.9003 50.8237 21.664 51.1731 21.4087C51.6625 21.0672 52.1151 20.6545 52.4534 20.156C53.2158 19.0658 53.4536 17.6266 53.1043 16.3409C51.8955 12.0429 45.9866 11.8125 44.4457 15.9808C44.1858 16.6775 44.0963 17.6099 43.9032 18.2638C43.8058 18.5693 43.6568 18.7658 43.4506 19.0783C43.4479 19.0821 43.4455 19.0862 43.4427 19.09C42.9581 19.8103 42.0584 20.1252 41.2355 19.8577C39.3528 19.246 37.3445 18.9156 35.2594 18.9156C33.1744 18.9156 31.09 19.2588 29.1767 19.8927C28.3152 20.1781 27.3714 19.828 26.9013 19.0478C25.6774 17.0159 24.5478 15.1411 23.7228 13.7717C23.562 13.5185 23.5145 13.269 23.4839 12.9179C23.4433 12.3671 23.3579 11.6208 23.1562 11.0555C22.4238 8.77969 19.797 7.46569 17.5357 8.19396C15.0339 8.92258 13.6847 11.7599 14.6122 14.1855C14.9988 15.2982 15.9194 16.178 16.8856 16.7516C17.164 16.9298 17.3571 17.056 17.4941 17.2072C17.6238 17.3435 17.7622 17.5958 17.8933 17.812C18.729 19.2014 19.8507 21.0621 21.0485 23.0493C21.4949 23.7897 21.4019 24.7349 20.8254 25.3784C18.7972 27.6424 17.2886 30.3864 16.4884 33.4202C16.2619 34.2792 15.493 34.8809 14.6088 34.8826C14.4783 34.8826 14.3541 34.8833 14.2364 34.8836C13.7604 34.8975 13.4224 34.8293 12.9137 34.647C12.0446 34.3304 11.0947 33.8613 10.1279 33.8706C6.04415 33.7724 3.94601 38.7572 6.78448 41.6536C7.90549 42.8168 9.66598 43.2762 11.2151 42.8469C11.6671 42.7241 12.1228 42.5224 12.5526 42.358C13.1546 42.1172 13.686 41.946 14.298 41.9844C14.3995 41.9844 14.5062 41.9847 14.6177 41.9851C15.4985 41.9868 16.2619 42.5878 16.4873 43.4437C17.2425 46.3115 18.6309 48.9204 20.4933 51.1101C21.0574 51.7733 21.1077 52.7355 20.6258 53.461C19.1985 55.6098 17.9629 57.4601 17.2759 58.4662C17.1306 58.6789 16.9468 58.8626 16.73 59.001C16.4918 59.1529 16.2292 59.2775 15.9088 59.4947C15.0249 60.0531 14.3159 60.8821 13.9686 61.8826C13.0273 64.3996 14.6201 67.3666 17.2642 67.8953C19.4831 68.4215 21.8979 67.0435 22.5656 64.8518C22.7377 64.356 22.8403 63.5807 22.894 63.17C22.9425 62.8455 23.0034 62.6694 23.1635 62.4265C23.7128 61.6114 24.9363 59.7646 26.3912 57.5666C26.8875 56.8169 27.8289 56.4958 28.6718 56.8013C30.7286 57.5466 32.9465 57.9531 35.2587 57.9531C36.927 57.9531 38.5464 57.7417 40.0911 57.3438C40.9226 57.1297 41.7958 57.4871 42.2405 58.2254C42.6019 58.8249 42.9388 59.384 43.2427 59.8881C43.5508 60.342 43.6406 60.6939 43.675 61.2509C43.7187 61.7456 43.7965 62.3154 43.9549 62.8033C45.4975 67.3753 52.0091 66.8082 52.7718 62.0612C52.8957 61.2253 52.7828 60.3441 52.451 59.5708C52.0387 58.5499 51.181 57.7645 50.2823 57.2165C49.9664 57.0082 49.7605 56.8816 49.5688 56.6391C49.5268 56.5861 49.4897 56.5297 49.4542 56.472C49.2133 56.0783 48.8774 55.5244 48.4757 54.8601C48.0042 54.0803 48.1312 53.0759 48.7824 52.4404C51.2715 50.0116 53.1153 46.9176 54.0301 43.444C54.2566 42.5833 55.0386 41.9885 55.9245 41.9896C58.3586 41.9916 60.613 41.9923 62.2674 41.9871C62.8464 41.9615 63.3317 42.3106 63.9168 42.5431C64.4375 42.767 65.0447 42.9548 65.626 42.9919C68.2428 43.2354 70.596 41.0215 70.5189 38.3759L70.5192 38.3752ZM23.5152 34.5968C23.5152 32.3307 25.3428 30.4933 27.5976 30.4933C29.8523 30.4933 31.6799 32.3304 31.6799 34.5968C31.6799 36.8633 29.8523 38.7004 27.5976 38.7004C25.3428 38.7004 23.5152 36.8633 23.5152 34.5968ZM30.254 48.663C28.7867 48.663 27.5972 47.4673 27.5972 45.9925C27.5972 44.5176 28.7867 43.3219 30.254 43.3219C31.7212 43.3219 32.9107 44.5176 32.9107 45.9925C32.9107 47.4673 31.7212 48.663 30.254 48.663ZM36.8399 41.0997C35.6074 41.0997 34.6086 40.0255 34.6086 38.7001C34.6086 37.3746 35.6077 36.3004 36.8399 36.3004C38.0721 36.3004 39.0712 37.3746 39.0712 38.7001C39.0712 40.0255 38.0721 41.0997 36.8399 41.0997Z" fill="#110090"/>
<path d="M70.5192 38.3752V38.3659C70.512 35.3649 67.4997 33.1756 64.6647 34.0588C64.1708 34.2024 63.5926 34.4668 63.1813 34.6584C62.9107 34.7805 62.655 34.8722 62.4227 34.8771C62.148 34.885 61.9332 34.8795 61.5787 34.8809C60.0609 34.8781 58.0639 34.8788 55.9138 34.8798C55.0293 34.8802 54.2566 34.281 54.0301 33.4212C53.2203 30.3486 51.6835 27.5733 49.616 25.2926C49.0016 24.6148 48.9479 23.5949 49.4769 22.8483C49.5485 22.7473 49.617 22.6515 49.6821 22.5618C49.7953 22.4051 49.9309 22.2664 50.0851 22.1501C50.4152 21.9003 50.8237 21.664 51.1731 21.4087C51.6625 21.0672 52.1151 20.6545 52.4534 20.156C53.2158 19.0658 53.4536 17.6266 53.1043 16.3409C51.8955 12.0429 45.9866 11.8125 44.4457 15.9808C44.1858 16.6775 44.0963 17.6099 43.9032 18.2638C43.8058 18.5693 43.6568 18.7658 43.4506 19.0783C43.4479 19.0821 43.4455 19.0862 43.4427 19.09C42.9581 19.8103 42.0584 20.1252 41.2355 19.8577C39.3528 19.246 37.3445 18.9156 35.2594 18.9156C33.1744 18.9156 31.09 19.2588 29.1767 19.8927C28.3152 20.1781 27.3714 19.828 26.9013 19.0478C25.6774 17.0159 24.5478 15.1411 23.7228 13.7717C23.562 13.5185 23.5145 13.269 23.4839 12.9179C23.4433 12.3671 23.3579 11.6208 23.1562 11.0555C22.4238 8.77969 19.797 7.46569 17.5357 8.19396C15.0339 8.92258 13.6847 11.7599 14.6122 14.1855C14.9988 15.2982 15.9194 16.178 16.8856 16.7516C17.164 16.9298 17.3571 17.056 17.4941 17.2072C17.6238 17.3435 17.7622 17.5958 17.8933 17.812C18.729 19.2014 19.8507 21.0621 21.0485 23.0493C21.4949 23.7897 21.4019 24.7349 20.8254 25.3784C18.7972 27.6424 17.2886 30.3864 16.4884 33.4202C16.2619 34.2792 15.493 34.8809 14.6088 34.8826C14.4783 34.8826 14.3541 34.8833 14.2364 34.8836C13.7604 34.8975 13.4224 34.8293 12.9137 34.647C12.0446 34.3304 11.0947 33.8613 10.1279 33.8706C6.04415 33.7724 3.94601 38.7572 6.78448 41.6536C7.90549 42.8168 9.66598 43.2762 11.2151 42.8469C11.6671 42.7241 12.1228 42.5224 12.5526 42.358C13.1546 42.1172 13.686 41.946 14.298 41.9844C14.3995 41.9844 14.5062 41.9847 14.6177 41.9851C15.4985 41.9868 16.2619 42.5878 16.4873 43.4437C17.2425 46.3115 18.6309 48.9204 20.4933 51.1101C21.0574 51.7733 21.1077 52.7355 20.6258 53.461C19.1985 55.6098 17.9629 57.4601 17.2759 58.4662C17.1306 58.6789 16.9468 58.8626 16.73 59.001C16.4918 59.1529 16.2292 59.2775 15.9088 59.4947C15.0249 60.0531 14.3159 60.8821 13.9686 61.8826C13.0273 64.3996 14.6201 67.3666 17.2642 67.8953C19.4831 68.4215 21.8979 67.0435 22.5656 64.8518C22.7377 64.356 22.8403 63.5807 22.894 63.17C22.9425 62.8455 23.0034 62.6694 23.1635 62.4265C23.7128 61.6114 24.9363 59.7646 26.3912 57.5666C26.8875 56.8169 27.8289 56.4958 28.6718 56.8013C30.7286 57.5466 32.9465 57.9531 35.2587 57.9531C36.927 57.9531 38.5464 57.7417 40.0911 57.3438C40.9226 57.1297 41.7958 57.4871 42.2405 58.2254C42.6019 58.8249 42.9388 59.384 43.2427 59.8881C43.5508 60.342 43.6406 60.6939 43.675 61.2509C43.7187 61.7456 43.7965 62.3154 43.9549 62.8033C45.4975 67.3753 52.0091 66.8082 52.7718 62.0612C52.8957 61.2253 52.7828 60.3441 52.451 59.5708C52.0387 58.5499 51.181 57.7645 50.2823 57.2165C49.9664 57.0082 49.7605 56.8816 49.5688 56.6391C49.5268 56.5861 49.4897 56.5297 49.4542 56.472C49.2133 56.0783 48.8774 55.5244 48.4757 54.8601C48.0042 54.0803 48.1312 53.0759 48.7824 52.4404C51.2715 50.0116 53.1153 46.9176 54.0301 43.444C54.2566 42.5833 55.0386 41.9885 55.9245 41.9896C58.3586 41.9916 60.613 41.9923 62.2674 41.9871C62.8464 41.9615 63.3317 42.3106 63.9168 42.5431C64.4375 42.767 65.0447 42.9548 65.626 42.9919C68.2428 43.2354 70.596 41.0215 70.5189 38.3759L70.5192 38.3752ZM23.5152 34.5968C23.5152 32.3307 25.3428 30.4933 27.5976 30.4933C29.8523 30.4933 31.6799 32.3304 31.6799 34.5968C31.6799 36.8633 29.8523 38.7004 27.5976 38.7004C25.3428 38.7004 23.5152 36.8633 23.5152 34.5968ZM30.254 48.663C28.7867 48.663 27.5972 47.4673 27.5972 45.9925C27.5972 44.5176 28.7867 43.3219 30.254 43.3219C31.7212 43.3219 32.9107 44.5176 32.9107 45.9925C32.9107 47.4673 31.7212 48.663 30.254 48.663ZM36.8399 41.0997C35.6074 41.0997 34.6086 40.0255 34.6086 38.7001C34.6086 37.3746 35.6077 36.3004 36.8399 36.3004C38.0721 36.3004 39.0712 37.3746 39.0712 38.7001C39.0712 40.0255 38.0721 41.0997 36.8399 41.0997Z" fill="url(#paint0_radial_20_72)" fill-opacity="0.9"/>
<path d="M17.4656 7.9545C19.8519 7.19 22.6131 8.5685 23.3914 10.9711L23.4656 11.2035C23.6258 11.7599 23.6975 12.4124 23.7332 12.8959L23.7586 13.1273C23.7791 13.2666 23.8074 13.38 23.8524 13.4848L23.9334 13.6381L23.9373 13.643L27.1151 18.9184L27.1971 19.0424C27.6282 19.6354 28.3954 19.8886 29.0984 19.6557L29.4637 19.5385C31.3006 18.9712 33.2797 18.6654 35.2596 18.6654C37.371 18.6655 39.4052 19 41.3123 19.6195L41.4481 19.6576C42.1251 19.8167 42.8387 19.5398 43.2352 18.9506L43.2401 18.9438L43.241 18.9428C43.2428 18.9402 43.2448 18.9362 43.2479 18.932C43.4602 18.6107 43.5814 18.4497 43.6649 18.1879C43.7564 17.8764 43.8239 17.4983 43.9041 17.0902C43.9829 16.6892 44.073 16.2635 44.2108 15.894L44.2908 15.6918C46.0023 11.5733 51.8998 11.8046 53.282 16.0639L53.3445 16.2729L53.3455 16.2758L53.407 16.5316C53.6798 17.818 53.4129 19.2154 52.659 20.2953L52.66 20.2963C52.2999 20.8269 51.8228 21.2602 51.3162 21.6137C51.1364 21.7449 50.9424 21.8706 50.7586 21.9906C50.5708 22.1133 50.3932 22.2302 50.2361 22.349L50.2352 22.35C50.1348 22.4257 50.0437 22.5126 49.9627 22.6088L49.8846 22.7084L49.6805 22.9926C49.2182 23.6451 49.2672 24.5349 49.8016 25.1244L50.1873 25.5639C52.0866 27.7872 53.5033 30.4402 54.2723 33.3578L54.3143 33.4955C54.5541 34.1717 55.1921 34.6306 55.9139 34.6303H61.5779C61.9406 34.6289 62.145 34.6352 62.4158 34.6273H62.4178L62.5584 34.6117C62.6573 34.5933 62.7663 34.5587 62.8875 34.5111L63.0779 34.4301C63.4856 34.2401 64.0774 33.9695 64.5906 33.8197L64.8719 33.7426C67.7813 33.0327 70.762 35.295 70.7693 38.3656V38.433L70.7684 38.434C70.8096 41.1971 68.3531 43.4915 65.6102 43.2406V43.2416C64.9923 43.2023 64.3585 43.004 63.824 42.7748V42.7758C63.6697 42.7144 63.5236 42.6456 63.3865 42.5805C63.2471 42.5142 63.1192 42.4528 62.992 42.3988C62.739 42.2916 62.5131 42.2263 62.2781 42.2367L62.2684 42.2377V42.2367L55.9246 42.2397C55.1996 42.2388 54.5546 42.6949 54.3143 43.3695L54.2723 43.5072C53.4036 46.8056 51.7073 49.766 49.4217 52.1498L48.9568 52.6195C48.3893 53.1737 48.2777 54.0502 48.6893 54.7309L49.6678 56.3412H49.6668C49.6997 56.3948 49.7313 56.4419 49.7645 56.4838L49.8895 56.6225C50.0187 56.7469 50.1721 56.8453 50.4119 57.0033H50.4129C51.335 57.5657 52.2398 58.3854 52.6805 59.4721L52.8016 59.7836C53.057 60.52 53.1336 61.3271 53.0193 62.0981L53.0184 62.101C52.2146 67.1026 45.3446 67.7053 43.7176 62.8832L43.7166 62.8803C43.5495 62.3654 43.4698 61.7732 43.4256 61.2729V61.266C43.3932 60.7418 43.3126 60.4364 43.0359 60.0287L43.0281 60.017V60.016C42.7244 59.5123 42.3872 58.9539 42.0262 58.3549V58.3539C41.6626 57.7506 40.9714 57.44 40.2899 57.557L40.1531 57.5863C38.5883 57.9893 36.9479 58.2035 35.2586 58.2035C33.0634 58.2035 30.9515 57.8415 28.9793 57.1742L28.5867 57.0365C27.9005 56.7878 27.1358 57.0165 26.6854 57.5863L26.5994 57.7045C25.1451 59.9016 23.9211 61.7495 23.3709 62.5658C23.2355 62.7718 23.1855 62.9124 23.1414 63.2074L23.1404 63.2065C23.0876 63.6104 22.9832 64.4107 22.8016 64.934C22.0921 67.2442 19.5563 68.6898 17.2147 68.1391V68.14C14.4154 67.58 12.7409 64.4518 13.7342 61.7953C14.1019 60.7403 14.8469 59.8716 15.7684 59.2875L16.0086 59.1332C16.0849 59.0868 16.1577 59.0455 16.2264 59.0063C16.3662 58.9265 16.4833 58.862 16.5955 58.7904L16.7303 58.6938C16.8596 58.5902 16.9734 58.4657 17.0692 58.3256L18.4656 56.2533C19.0385 55.3969 19.704 54.3972 20.4178 53.3227L20.491 53.2016C20.8087 52.6258 20.7701 51.9152 20.3895 51.3832L20.3026 51.2719C18.5345 49.193 17.1879 46.7408 16.3963 44.0492L16.2459 43.5072C16.061 42.8053 15.4636 42.303 14.7596 42.2416L14.617 42.2348H14.2899L14.282 42.2338C13.7287 42.1991 13.2409 42.352 12.6453 42.5902L12.6424 42.5912C12.2298 42.749 11.7488 42.9601 11.2811 43.0873L11.282 43.0883C9.64675 43.5415 7.79055 43.0583 6.60431 41.8275V41.8266C3.61582 38.774 5.82049 33.517 10.1336 33.6205H10.1326C10.6533 33.6167 11.1602 33.741 11.6365 33.8998C12.101 34.0547 12.5874 34.2622 12.9969 34.4115H12.9979C13.4853 34.5863 13.7921 34.6469 14.2293 34.6342L14.2352 34.6332L14.6082 34.6322L14.7508 34.6264C15.459 34.5651 16.0611 34.0612 16.2469 33.3568L16.407 32.7836C17.2503 29.938 18.7138 27.3609 20.6395 25.2113L20.7283 25.1029C21.1228 24.5836 21.1916 23.8842 20.9022 23.3012L20.8348 23.1781C19.6371 21.191 18.5152 19.3304 17.6795 17.9408V17.9418C17.609 17.8256 17.5479 17.7189 17.4813 17.6127C17.4153 17.5076 17.3598 17.4281 17.3133 17.3793L17.3084 17.3754C17.1984 17.254 17.0373 17.1456 16.7508 16.9623V16.9613C15.7575 16.3698 14.7874 15.4524 14.3758 14.268V14.267C13.4037 11.7114 14.8213 8.72366 17.4656 7.95352V7.9545ZM30.2537 43.5717C28.9259 43.5718 27.8475 44.6546 27.8475 45.9926C27.8475 47.3305 28.9259 48.4133 30.2537 48.4135C31.5816 48.4135 32.6609 47.3306 32.6609 45.9926C32.6609 44.6546 31.5817 43.5717 30.2537 43.5717ZM36.8397 36.5502C35.7626 36.5503 34.8584 37.4952 34.8582 38.6996C34.8582 39.9043 35.7621 40.8499 36.8397 40.85C37.917 40.85 38.8211 39.9044 38.8211 38.6996C38.8209 37.4951 37.9168 36.5502 36.8397 36.5502ZM27.5975 30.7436C25.4821 30.7436 23.7654 32.4678 23.7654 34.5971C23.7656 36.7266 25.4821 38.4505 27.5975 38.4506C29.7128 38.4506 31.4294 36.7266 31.4295 34.5971C31.4295 32.4675 29.7129 30.7436 27.5975 30.7436Z" stroke="#EDEDED" stroke-opacity="0.2" stroke-width="0.5"/>
<defs>
<radialGradient id="paint0_radial_20_72" cx="0" cy="0" r="1" gradientUnits="userSpaceOnUse" gradientTransform="translate(38 38) rotate(90) scale(30.0074 32.5207)">
<stop stop-opacity="0"/>
<stop offset="1" stop-color="#0505EA"/>
</radialGradient>
</defs>
</svg>
